<svg width="308" height="154" viewBox="0 0 308 154" fill="none" xmlns="http://www.w3.org/2000/svg">
<line x1="26.8293" y1="118.784" x2="308" y2="118.784" stroke="#E7E7E7" stroke-width="0.5"/>
<line x1="26.8293" y1="90.8054" x2="308" y2="90.8054" stroke="#E7E7E7" stroke-width="0.5"/>
<line x1="26.8293" y1="62.827" x2="308" y2="62.827" stroke="#E7E7E7" stroke-width="0.5"/>
<line x1="26.8293" y1="34.8486" x2="308" y2="34.8486" stroke="#E7E7E7" stroke-width="0.5"/>
<line x1="26.8293" y1="6.87027" x2="308" y2="6.87027" stroke="#E7E7E7" stroke-width="0.5"/>
<path d="M13.106 12.5597C13.546 12.7064 13.8827 12.9264 14.116 13.2197C14.356 13.513 14.476 13.8664 14.476 14.2797C14.476 14.6864 14.366 15.043 14.146 15.3497C13.926 15.6497 13.6093 15.883 13.196 16.0497C12.7893 16.2097 12.3093 16.2897 11.756 16.2897C10.916 16.2897 10.256 16.1097 9.77598 15.7497C9.29598 15.3897 9.05598 14.8997 9.05598 14.2797C9.05598 13.8597 9.16932 13.5064 9.39598 13.2197C9.62932 12.9264 9.96598 12.7064 10.406 12.5597C10.046 12.4197 9.77265 12.2197 9.58598 11.9597C9.39932 11.693 9.30598 11.3797 9.30598 11.0197C9.30598 10.453 9.52598 10.003 9.96598 9.66971C10.4127 9.33637 11.0093 9.16971 11.756 9.16971C12.2493 9.16971 12.6793 9.24637 13.046 9.39971C13.4193 9.54637 13.7093 9.75971 13.916 10.0397C14.1227 10.3197 14.226 10.6464 14.226 11.0197C14.226 11.3797 14.1293 11.693 13.936 11.9597C13.7427 12.2197 13.466 12.4197 13.106 12.5597ZM10.026 11.0397C10.026 11.4264 10.1793 11.733 10.486 11.9597C10.7927 12.1864 11.216 12.2997 11.756 12.2997C12.296 12.2997 12.7193 12.1864 13.026 11.9597C13.3393 11.733 13.496 11.4297 13.496 11.0497C13.496 10.6564 13.336 10.3464 13.016 10.1197C12.7027 9.89304 12.2827 9.77971 11.756 9.77971C11.2227 9.77971 10.7993 9.89304 10.486 10.1197C10.1793 10.3464 10.026 10.653 10.026 11.0397ZM11.756 15.6797C12.376 15.6797 12.8593 15.553 13.206 15.2997C13.5593 15.0464 13.736 14.703 13.736 14.2697C13.736 13.8364 13.5593 13.4964 13.206 13.2497C12.8593 12.9964 12.376 12.8697 11.756 12.8697C11.1427 12.8697 10.6593 12.9964 10.306 13.2497C9.95932 13.4964 9.78598 13.8364 9.78598 14.2697C9.78598 14.7097 9.95932 15.0564 10.306 15.3097C10.6527 15.5564 11.136 15.6797 11.756 15.6797Z" fill="#979797"/>
<path d="M12.1376 37.091C12.5976 37.091 13.0043 37.1777 13.3576 37.351C13.7176 37.5244 13.9976 37.771 14.1976 38.091C14.3976 38.4044 14.4976 38.771 14.4976 39.191C14.4976 39.6177 14.3943 39.9944 14.1876 40.321C13.9809 40.6477 13.6943 40.901 13.3276 41.081C12.9676 41.2544 12.5609 41.341 12.1076 41.341C11.1809 41.341 10.4709 41.0377 9.97759 40.431C9.48425 39.8177 9.23759 38.9544 9.23759 37.841C9.23759 37.061 9.37092 36.401 9.63759 35.861C9.90425 35.321 10.2776 34.9144 10.7576 34.641C11.2376 34.361 11.7976 34.221 12.4376 34.221C13.1309 34.221 13.6843 34.3477 14.0976 34.601L13.8076 35.181C13.4743 34.961 13.0209 34.851 12.4476 34.851C11.6743 34.851 11.0676 35.0977 10.6276 35.591C10.1876 36.0777 9.96759 36.7877 9.96759 37.721C9.96759 37.8877 9.97759 38.0777 9.99759 38.291C10.1709 37.911 10.4476 37.6177 10.8276 37.411C11.2076 37.1977 11.6443 37.091 12.1376 37.091ZM12.0776 40.731C12.5843 40.731 12.9943 40.5944 13.3076 40.321C13.6276 40.041 13.7876 39.671 13.7876 39.211C13.7876 38.751 13.6276 38.3844 13.3076 38.111C12.9943 37.8377 12.5676 37.701 12.0276 37.701C11.6743 37.701 11.3609 37.7677 11.0876 37.901C10.8209 38.0344 10.6109 38.2177 10.4576 38.451C10.3043 38.6844 10.2276 38.9444 10.2276 39.231C10.2276 39.4977 10.2976 39.7444 10.4376 39.971C10.5843 40.1977 10.7976 40.381 11.0776 40.521C11.3576 40.661 11.6909 40.731 12.0776 40.731Z" fill="#979797"/>
<path d="M14.9288 64.4923H13.5288V66.3323H12.8088V64.4923H8.8588V63.9723L12.5688 59.3323H13.3688L9.7888 63.8523H12.8288V62.2323H13.5288V63.8523H14.9288V64.4923Z" fill="#979797"/>
<path d="M14.2227 90.7437V91.3837H9.31266V90.8737L12.2227 88.0237C12.5893 87.6637 12.836 87.3537 12.9627 87.0937C13.096 86.827 13.1627 86.5603 13.1627 86.2937C13.1627 85.8803 13.0193 85.5603 12.7327 85.3337C12.4527 85.1003 12.0493 84.9837 11.5227 84.9837C10.7027 84.9837 10.066 85.2437 9.61266 85.7637L9.10266 85.3237C9.376 85.0037 9.72266 84.757 10.1427 84.5837C10.5693 84.4103 11.0493 84.3237 11.5827 84.3237C12.296 84.3237 12.8593 84.4937 13.2727 84.8337C13.6927 85.167 13.9027 85.627 13.9027 86.2137C13.9027 86.5737 13.8227 86.9203 13.6627 87.2537C13.5027 87.587 13.1993 87.9703 12.7527 88.4037L10.3727 90.7437H14.2227Z" fill="#979797"/>
<path d="M11.7639 116.495C11.2239 116.495 10.7406 116.352 10.3139 116.065C9.89391 115.778 9.56391 115.368 9.32391 114.835C9.09058 114.295 8.97391 113.662 8.97391 112.935C8.97391 112.208 9.09058 111.578 9.32391 111.045C9.56391 110.505 9.89391 110.092 10.3139 109.805C10.7406 109.518 11.2239 109.375 11.7639 109.375C12.3039 109.375 12.7839 109.518 13.2039 109.805C13.6306 110.092 13.9639 110.505 14.2039 111.045C14.4439 111.578 14.5639 112.208 14.5639 112.935C14.5639 113.662 14.4439 114.295 14.2039 114.835C13.9639 115.368 13.6306 115.778 13.2039 116.065C12.7839 116.352 12.3039 116.495 11.7639 116.495ZM11.7639 115.835C12.1706 115.835 12.5272 115.722 12.8339 115.495C13.1472 115.268 13.3906 114.938 13.5639 114.505C13.7372 114.072 13.8239 113.548 13.8239 112.935C13.8239 112.322 13.7372 111.798 13.5639 111.365C13.3906 110.932 13.1472 110.602 12.8339 110.375C12.5272 110.148 12.1706 110.035 11.7639 110.035C11.3572 110.035 10.9972 110.148 10.6839 110.375C10.3772 110.602 10.1372 110.932 9.96391 111.365C9.79058 111.798 9.70391 112.322 9.70391 112.935C9.70391 113.548 9.79058 114.072 9.96391 114.505C10.1372 114.938 10.3772 115.268 10.6839 115.495C10.9972 115.722 11.3572 115.835 11.7639 115.835Z" fill="#979797"/>
<path fill-rule="evenodd" clip-rule="evenodd" d="M33.334 119.186V48.2937C33.334 45.5273 36.0691 43.2848 39.4431 43.2848C42.8171 43.2848 45.5522 45.5273 45.5522 48.2937V119.186H33.334Z" fill="#F6E9E7"/>
<path fill-rule="evenodd" clip-rule="evenodd" d="M75.7847 119.186V36.6166C75.7847 33.8502 78.5199 31.6077 81.8938 31.6077C85.2678 31.6077 88.003 33.8502 88.003 36.6166V119.186H75.7847Z" fill="#F6E9E7"/>
<path fill-rule="evenodd" clip-rule="evenodd" d="M118.235 119.186V54.1322C118.235 51.3659 120.971 49.1233 124.345 49.1233C127.719 49.1233 130.454 51.3659 130.454 54.1322V119.186H118.235Z" fill="#F6E9E7"/>
<path fill-rule="evenodd" clip-rule="evenodd" d="M160.686 119.186V42.4551C160.686 39.6888 163.421 37.4462 166.795 37.4462C170.169 37.4462 172.904 39.6888 172.904 42.4551V119.186H160.686Z" fill="#F6E9E7"/>
<path fill-rule="evenodd" clip-rule="evenodd" d="M203.137 119.186V30.1942C203.137 27.4278 205.872 25.1853 209.246 25.1853C212.62 25.1853 215.355 27.4278 215.355 30.1942V119.186H203.137Z" fill="#F6E9E7"/>
<path fill-rule="evenodd" clip-rule="evenodd" d="M245.446 119.186V30.3107C245.446 27.48 248.244 25.1853 251.697 25.1853C255.149 25.1853 257.948 27.48 257.948 30.3107V119.186H245.446Z" fill="#F6E9E7"/>
<path fill-rule="evenodd" clip-rule="evenodd" d="M284.64 119.186V30.3107C284.64 27.48 287.439 25.1853 290.892 25.1853C294.344 25.1853 297.143 27.48 297.143 30.3107V119.186H284.64Z" fill="#F6E9E7"/>
<path d="M40.7445 131.989C40.6645 131.895 40.5579 131.805 40.4245 131.719C40.2912 131.632 40.1412 131.555 39.9745 131.489C39.8079 131.415 39.6245 131.359 39.4245 131.319C39.2312 131.272 39.0279 131.249 38.8145 131.249C38.2679 131.249 37.8645 131.352 37.6045 131.559C37.3445 131.765 37.2145 132.049 37.2145 132.409C37.2145 132.662 37.2812 132.862 37.4145 133.009C37.5479 133.155 37.7512 133.275 38.0245 133.369C38.3045 133.462 38.6579 133.559 39.0845 133.659C39.5779 133.765 40.0045 133.895 40.3645 134.049C40.7245 134.202 41.0012 134.409 41.1945 134.669C41.3879 134.922 41.4845 135.262 41.4845 135.689C41.4845 136.029 41.4179 136.325 41.2845 136.579C41.1579 136.825 40.9779 137.032 40.7445 137.199C40.5112 137.359 40.2379 137.479 39.9245 137.559C39.6112 137.632 39.2712 137.669 38.9045 137.669C38.5445 137.669 38.1912 137.632 37.8445 137.559C37.5045 137.479 37.1812 137.365 36.8745 137.219C36.5679 137.072 36.2812 136.889 36.0145 136.669L36.4445 135.909C36.5512 136.022 36.6879 136.135 36.8545 136.249C37.0279 136.355 37.2212 136.455 37.4345 136.549C37.6545 136.642 37.8912 136.719 38.1445 136.779C38.3979 136.832 38.6579 136.859 38.9245 136.859C39.4312 136.859 39.8245 136.769 40.1045 136.589C40.3845 136.402 40.5245 136.132 40.5245 135.779C40.5245 135.512 40.4445 135.299 40.2845 135.139C40.1312 134.979 39.9012 134.845 39.5945 134.739C39.2879 134.632 38.9145 134.525 38.4745 134.419C37.9945 134.299 37.5912 134.169 37.2645 134.029C36.9379 133.882 36.6912 133.692 36.5245 133.459C36.3645 133.225 36.2845 132.922 36.2845 132.549C36.2845 132.095 36.3945 131.712 36.6145 131.399C36.8345 131.085 37.1379 130.849 37.5245 130.689C37.9112 130.529 38.3479 130.449 38.8345 130.449C39.1545 130.449 39.4512 130.482 39.7245 130.549C40.0045 130.615 40.2645 130.709 40.5045 130.829C40.7445 130.949 40.9645 131.092 41.1645 131.259L40.7445 131.989Z" fill="#979797"/>
<path d="M83.7605 137.599V132.179L81.4205 136.349H80.8705L78.5205 132.179V137.599H77.6205V130.499H78.5705L81.1405 135.109L83.7205 130.499H84.6605V137.599H83.7605Z" fill="#979797"/>
<path d="M126.408 131.299H123.958V137.599H123.058V131.299H120.608V130.499H126.408V131.299Z" fill="#979797"/>
<path d="M164.085 130.539H164.935L165.875 133.009L166.825 130.539H167.675L166.445 133.629L167.665 136.559L170.065 130.499H171.045L168.075 137.599H167.295L165.885 134.249L164.465 137.599H163.685L160.725 130.499H161.695L164.105 136.559L165.315 133.629L164.085 130.539Z" fill="#979797"/>
<path d="M211.147 131.299H208.697V137.599H207.797V131.299H205.347V130.499H211.147V131.299Z" fill="#979797"/>
<path d="M248.552 137.599V130.499H253.242V131.299H249.452V133.669H252.642V134.419H249.452V137.599H248.552Z" fill="#979797"/>
<path d="M294.96 131.989C294.88 131.895 294.773 131.805 294.64 131.719C294.506 131.632 294.356 131.555 294.19 131.489C294.023 131.415 293.84 131.359 293.64 131.319C293.446 131.272 293.243 131.249 293.03 131.249C292.483 131.249 292.08 131.352 291.82 131.559C291.56 131.765 291.43 132.049 291.43 132.409C291.43 132.662 291.496 132.862 291.63 133.009C291.763 133.155 291.966 133.275 292.24 133.369C292.52 133.462 292.873 133.559 293.3 133.659C293.793 133.765 294.22 133.895 294.58 134.049C294.94 134.202 295.216 134.409 295.41 134.669C295.603 134.922 295.7 135.262 295.7 135.689C295.7 136.029 295.633 136.325 295.5 136.579C295.373 136.825 295.193 137.032 294.96 137.199C294.726 137.359 294.453 137.479 294.14 137.559C293.826 137.632 293.486 137.669 293.12 137.669C292.76 137.669 292.406 137.632 292.06 137.559C291.72 137.479 291.396 137.365 291.09 137.219C290.783 137.072 290.496 136.889 290.23 136.669L290.66 135.909C290.766 136.022 290.903 136.135 291.07 136.249C291.243 136.355 291.436 136.455 291.65 136.549C291.87 136.642 292.106 136.719 292.36 136.779C292.613 136.832 292.873 136.859 293.14 136.859C293.646 136.859 294.04 136.769 294.32 136.589C294.6 136.402 294.74 136.132 294.74 135.779C294.74 135.512 294.66 135.299 294.5 135.139C294.346 134.979 294.116 134.845 293.81 134.739C293.503 134.632 293.13 134.525 292.69 134.419C292.21 134.299 291.806 134.169 291.48 134.029C291.153 133.882 290.906 133.692 290.74 133.459C290.58 133.225 290.5 132.922 290.5 132.549C290.5 132.095 290.61 131.712 290.83 131.399C291.05 131.085 291.353 130.849 291.74 130.689C292.126 130.529 292.563 130.449 293.05 130.449C293.37 130.449 293.666 130.482 293.94 130.549C294.22 130.615 294.48 130.709 294.72 130.829C294.96 130.949 295.18 131.092 295.38 131.259L294.96 131.989Z" fill="#979797"/>
<path d="M39 43.8776L81.6637 32.1429L124.327 50L166.991 37.7551L209.086 25H251.749H291" stroke="#E3A89F"/>
<circle cx="39" cy="43" r="2" fill="#DD7E6F"/>
<circle cx="82" cy="32" r="2" fill="#DD7E6F"/>
<circle cx="124" cy="50" r="2" fill="#DD7E6F"/>
<circle cx="167" cy="38" r="2" fill="#DD7E6F"/>
<circle cx="209" cy="25" r="2" fill="#DD7E6F"/>
<circle cx="252" cy="25" r="2" fill="#DD7E6F"/>
<circle cx="291" cy="25" r="2" fill="#DD7E6F"/>
</svg>
