<svg width="142" height="142" viewBox="0 0 142 142" fill="none" xmlns="http://www.w3.org/2000/svg">
<path opacity="0.2" d="M106.874 71.3033C106.874 91.1409 90.793 107.223 70.9555 107.223C51.118 107.223 35.0365 91.1409 35.0365 71.3033C35.0365 51.4656 51.118 35.384 70.9555 35.384C90.793 35.384 106.874 51.4656 106.874 71.3033ZM41.7685 71.3033C41.7685 87.423 54.8359 100.491 70.9555 100.491C87.075 100.491 100.142 87.423 100.142 71.3033C100.142 55.1836 87.075 42.116 70.9555 42.116C54.8359 42.116 41.7685 55.1836 41.7685 71.3033Z" fill="#E7E7E7"/>
<path opacity="0.2" d="M141.555 71.3033C141.555 110.295 109.946 141.903 70.9555 141.903C31.9646 141.903 0.356171 110.295 0.356171 71.3033C0.356171 32.312 31.9646 0.703278 70.9555 0.703278C109.946 0.703278 141.555 32.312 141.555 71.3033ZM6.64773 71.3033C6.64773 106.82 35.4393 135.612 70.9555 135.612C106.472 135.612 135.263 106.82 135.263 71.3033C135.263 35.7867 106.472 6.9949 70.9555 6.9949C35.4393 6.9949 6.64773 35.7867 6.64773 71.3033Z" fill="#E7E7E7"/>
<path opacity="0.2" d="M132.885 71.3033C132.885 105.506 105.158 133.233 70.9555 133.233C36.7529 133.233 9.02628 105.506 9.02628 71.3033C9.02628 37.1004 36.7529 9.37344 70.9555 9.37344C105.158 9.37344 132.885 37.1004 132.885 71.3033ZM15.5383 71.3033C15.5383 101.91 40.3494 126.721 70.9555 126.721C101.562 126.721 126.373 101.91 126.373 71.3033C126.373 40.6969 101.562 15.8855 70.9555 15.8855C40.3494 15.8855 15.5383 40.6969 15.5383 71.3033Z" fill="#E7E7E7"/>
<path opacity="0.2" d="M124.215 71.3033C124.215 100.718 100.37 124.563 70.9555 124.563C41.5413 124.563 17.6964 100.718 17.6964 71.3033C17.6964 41.8888 41.5413 18.0436 70.9555 18.0436C100.37 18.0436 124.215 41.8888 124.215 71.3033ZM24.1753 71.3033C24.1753 97.1395 45.1195 118.084 70.9555 118.084C96.7915 118.084 117.736 97.1395 117.736 71.3033C117.736 45.4671 96.7915 24.5226 70.9555 24.5226C45.1195 24.5226 24.1753 45.4671 24.1753 71.3033Z" fill="#E7E7E7"/>
<path opacity="0.2" d="M115.545 71.3033C115.545 95.9294 95.5813 115.893 70.9555 115.893C46.3296 115.893 26.3665 95.9294 26.3665 71.3033C26.3665 46.6772 46.3296 26.7138 70.9555 26.7138C95.5813 26.7138 115.545 46.6772 115.545 71.3033ZM32.8838 71.3033C32.8838 92.3299 49.9291 109.375 70.9555 109.375C91.9819 109.375 109.027 92.3299 109.027 71.3033C109.027 50.2767 91.9819 33.2312 70.9555 33.2312C49.9291 33.2312 32.8838 50.2767 32.8838 71.3033Z" fill="#E7E7E7"/>
<path d="M132.885 71.3033C132.885 63.1705 131.283 55.1174 128.171 47.6038C125.058 40.0901 120.497 33.263 114.746 27.5123C108.995 21.7616 102.168 17.1998 94.6548 14.0876C87.1412 10.9753 79.0882 9.37344 70.9555 9.37344V15.8855C78.233 15.8855 85.4392 17.3189 92.1627 20.1039C98.8863 22.8889 104.995 26.971 110.141 32.117C115.287 37.263 119.369 43.3722 122.154 50.0958C124.939 56.8194 126.373 64.0257 126.373 71.3033H132.885Z" fill="#E3A89F"/>
<path d="M141.555 71.3033C141.555 56.394 136.835 41.8675 128.072 29.8056C119.308 17.7438 106.951 8.7659 92.7719 4.15869C78.5925 -0.448526 63.3185 -0.448526 49.1391 4.15869C34.9597 8.7659 22.6028 17.7438 13.8394 29.8056C5.07608 41.8675 0.356169 56.394 0.356171 71.3033C0.356172 86.2125 5.07609 100.739 13.8394 112.801C22.6028 124.863 34.9597 133.841 49.1391 138.448C63.3185 143.055 78.5925 143.055 92.7719 138.448L90.8277 132.464C77.9119 136.661 63.9991 136.661 51.0833 132.464C38.1675 128.268 26.9118 120.09 18.9294 109.103C10.947 98.1159 6.64773 84.8839 6.64773 71.3033C6.64773 57.7227 10.947 44.4907 18.9294 33.5038C26.9118 22.5168 38.1675 14.339 51.0833 10.1424C63.9991 5.94574 77.9119 5.94574 90.8277 10.1424C103.743 14.339 114.999 22.5168 122.982 33.5038C130.964 44.4907 135.263 57.7227 135.263 71.3033H141.555Z" fill="#F6E9E7"/>
<path d="M124.215 71.3033C124.215 58.622 119.69 46.3568 111.454 36.7139C103.218 27.071 91.8121 20.6831 79.287 18.6994C66.762 16.7156 53.9401 19.266 43.1277 25.892C32.3152 32.5179 24.2217 42.7845 20.303 54.8452L26.4649 56.8473C29.9069 46.2538 37.0158 37.2361 46.5129 31.4162C56.01 25.5963 67.2721 23.3561 78.2735 25.0986C89.2749 26.841 99.2935 32.4518 106.527 40.9217C113.761 49.3916 117.736 60.1647 117.736 71.3033H124.215Z" fill="#BCD9D1"/>
<path d="M115.545 71.3033C115.545 64.2666 113.879 57.3298 110.685 51.0601C107.49 44.7903 102.857 39.3657 97.1643 35.2296C91.4715 31.0936 84.8807 28.3636 77.9308 27.2628C70.9808 26.162 63.8689 26.7217 57.1767 28.8962C50.4845 31.0706 44.4019 34.7981 39.4263 39.7738C34.4506 44.7494 30.7232 50.8321 28.5488 57.5244C26.3744 64.2167 25.8147 71.3286 26.9154 78.2786C28.0162 85.2287 30.7462 91.8195 34.8822 97.5123L40.1549 93.6815C36.6234 88.8208 34.2924 83.1932 33.3526 77.2591C32.4127 71.3249 32.8906 65.2525 34.7472 59.5384C36.6038 53.8243 39.7864 48.6307 44.0348 44.3823C48.2831 40.1339 53.4767 36.9513 59.1907 35.0946C64.9047 33.238 70.9771 32.7601 76.9112 33.7C82.8453 34.6399 88.4728 36.9708 93.3335 40.5024C98.1941 44.0339 102.15 48.6656 104.878 54.0189C107.605 59.3722 109.027 65.2951 109.027 71.3033H115.545Z" fill="#85BDAF"/>
<path d="M106.874 71.3033C106.874 63.7179 104.473 56.3272 100.015 50.1904C95.556 44.0537 89.2691 39.486 82.055 37.142C74.841 34.798 67.07 34.798 59.8559 37.142C52.6418 39.486 46.355 44.0537 41.8964 50.1904L47.3427 54.1474C50.9656 49.1608 56.0742 45.4492 61.9362 43.5445C67.7982 41.6398 74.1127 41.6398 79.9747 43.5445C85.8368 45.4492 90.9453 49.1608 94.5682 54.1474C98.1912 59.134 100.142 65.1395 100.142 71.3033H106.874Z" fill="#143029"/>
<path d="M61.1796 83.5609C59.3542 83.5609 57.7089 83.1286 56.2438 82.2639C54.7786 81.3992 53.6738 80.2463 52.9292 78.8052L54.9107 77.0759C55.5832 78.1807 56.4719 79.0694 57.5768 79.742C58.7057 80.4145 59.9186 80.7507 61.2156 80.7507C62.3205 80.7507 63.3053 80.5106 64.1699 80.0302C65.0346 79.5498 65.7191 78.8893 66.2235 78.0486C66.7279 77.184 66.9801 76.1992 66.9801 75.0943C66.9801 74.0135 66.7279 73.0648 66.2235 72.2481C65.7432 71.4315 65.0826 70.795 64.242 70.3386C63.4254 69.8823 62.5006 69.6541 61.4678 69.6541C60.435 69.6541 59.4623 69.8823 58.5496 70.3386C57.6609 70.795 56.9283 71.4435 56.3518 72.2841H53.5056L56.3879 57.6207H68.8176V60.539H58.7297L57.1805 68.6813C57.7089 68.1289 58.3694 67.6966 59.162 67.3843C59.9787 67.0481 60.8794 66.8799 61.8641 66.8799C63.4494 66.8799 64.8665 67.2282 66.1154 67.9248C67.3884 68.6213 68.3852 69.582 69.1058 70.807C69.8504 72.032 70.2226 73.4491 70.2226 75.0583C70.2226 76.7396 69.8143 78.2168 68.9977 79.4898C68.2051 80.7868 67.1242 81.7835 65.7552 82.4801C64.3861 83.2006 62.8609 83.5609 61.1796 83.5609ZM91.654 67.6365C91.654 69.7502 91.2577 71.6356 90.4651 73.2929C89.6724 74.9262 88.5916 76.2112 87.2225 77.1479C85.8535 78.0847 84.2923 78.553 82.5389 78.553C80.7855 78.553 79.2243 78.0847 77.8552 77.1479C76.4862 76.2112 75.4053 74.9262 74.6127 73.2929C73.8201 71.6356 73.4238 69.7502 73.4238 67.6365C73.4238 65.5229 73.8201 63.6494 74.6127 62.0162C75.4053 60.3589 76.4862 59.0619 77.8552 58.1251C79.2243 57.1644 80.7855 56.684 82.5389 56.684C84.2923 56.684 85.8535 57.1644 87.2225 58.1251C88.5916 59.0619 89.6724 60.3589 90.4651 62.0162C91.2577 63.6494 91.654 65.5229 91.654 67.6365ZM88.4475 67.6365C88.4475 66.0513 88.1953 64.6582 87.6909 63.4573C87.1865 62.2563 86.49 61.3196 85.6013 60.6471C84.7126 59.9746 83.6918 59.6383 82.5389 59.6383C81.362 59.6383 80.3292 59.9746 79.4405 60.6471C78.5518 61.3196 77.8552 62.2563 77.3509 63.4573C76.8465 64.6582 76.5943 66.0513 76.5943 67.6365C76.5943 69.2218 76.8465 70.6148 77.3509 71.8158C77.8552 72.9927 78.5518 73.9174 79.4405 74.5899C80.3292 75.2625 81.362 75.5987 82.5389 75.5987C83.6918 75.5987 84.7126 75.2625 85.6013 74.5899C86.49 73.9174 87.1865 72.9927 87.6909 71.8158C88.1953 70.6148 88.4475 69.2218 88.4475 67.6365Z" fill="black"/>
</svg>
